# xmcd
#
# Track frame offsets:
#	150
#	21434
#	38847
#	51519
#	72971
#	86183
#	103558
#	116507
#	129536
#	144905
#	157486
#	169334
#	185319
#	197459
#	218847
#
# Disc length: 3043 seconds
#
# Revision: 4
# Processed by: cddbd v1.5.2PL0 Copyright (c) Steve Scherf et al.
# Submitted via: EasyCDDAExtractor 2010.4.0.0
#
DISCID=de0be10f
DTITLE=Various Artist - Town and Country Blues
DYEAR=2009
DGENRE=Blues
TTITLE0=Sunnyland Slim - Decoration Day
TTITLE1=Dave Van Ronk - Come Back Baby
TTITLE2=Roosevelt Sykes - She Ain't for Nobody
TTITLE3=Reverend Gary Davis - Death don't have no Mercy
TTITLE4=Furry Lewis - Goin' to Kansas City
TTITLE5=Mildred Anderson - Kidney Stew Blues
TTITLE6=Danny Kalb - Nobody Knows You When You're Down and Out
TTITLE7=Tom Rush - Baby Please Don't Go
TTITLE8=Willie Dixon (with Memphis Slim) - Sittin' and Cryin' the Blues
TTITLE9=Jimmy Witherspoon - Money's Getting Cheaper
TTITLE10=Curtis Jones - Please Say Yes
TTITLE11=Victoria Spivey and Lonnie Lohnson - Idle Hours
TTITLE12=Little Brother Montgomery - Santa Fe
TTITLE13=Memphis Slim - Mother Earth
TTITLE14=Willie Dixon (with Memphis Slim) - Don't You Tell Nobody
EXTD=YEAR: 2009
EXTT0=
EXTT1=
EXTT2=
EXTT3=
EXTT4=
EXTT5=
EXTT6=
EXTT7=
EXTT8=
EXTT9=
EXTT10=
EXTT11=
EXTT12=
EXTT13=
EXTT14=
PLAYORDER=
